# xmcd
#
# Track frame offsets: 
#        150
#        18828
#        37106
#        51563
#        69225
#        84775
#        101233
#        117572
#        135020
#        152015
#        165343
#        178988
#        193823
#        209532
#        229450
#        242728
#        255453
#        272790
#
# Disc length: 3893 seconds
#
# Revision: 3
# Processed by: cddbd v1.5.2PL0 Copyright (c) Steve Scherf et al.
# Submitted via: ExactAudioCopyFreeDBPlugin 1.0
#
DISCID=fc0f3312
DTITLE=Various Artist - Promo Only Country Radio October 2006
DYEAR=2006
DGENRE=Country
TTITLE0=Keith Urban - Once In A Lifetime (Radio Edit)
TTITLE1=Rascal Flatts - My Wish
TTITLE2=Jimmy Buffett - Bama Breeze (Single Edit)
TTITLE3=Kenny Chesney - You Save Me
TTITLE4=Eric Church - Two Pink Lines
TTITLE5=Tim McGraw - My Little Girl
TTITLE6=Lee Ann Womack - Finding My Way Back Home (Radio Edit)
TTITLE7=Carolyn Dawn Johnson - Taking Back My Brave
TTITLE8=Brad Paisley - She's Everything (Radio Version Edit)
TTITLE9=John Anderson - If Her Lovin' Don't Kill Me (Album Version)
TTITLE10=Toby Keith - Crash Here Tonight
TTITLE11=Carrie Underwood - Before He Cheats
TTITLE12=Trent Willmon - So Am I
TTITLE13=Sara Evans - You'll Always Be My Baby
TTITLE14=Ray Scott - I Didn't Come Here To Talk (Radio Edit)
TTITLE15=Vince Gill - The Reason Why
TTITLE16=Rhett Akins - If Heaven Wasn't So Far Away
TTITLE17=Brian McComas - When It All Comes Floodin' Down
EXTD=
EXTT0=
EXTT1=
EXTT2=
EXTT3=
EXTT4=
EXTT5=
EXTT6=
EXTT7=
EXTT8=
EXTT9=
EXTT10=
EXTT11=
EXTT12=
EXTT13=
EXTT14=
EXTT15=
EXTT16=
EXTT17=
PLAYORDER=
